<?xml version="1.0" encoding="UTF-8" standalone="no"?><svg xmlns="http://www.w3.org/2000/svg" height="45" viewBox="0 0 36 36" width="45"><path d="M27 32c0 2.209-1.791 4-4 4H13c-2.209 0-4-1.791-4-4V4c0-2.209 1.791-4 4-4h10c2.209 0 4 1.791 4 4v28z" fill="#31373D"/><path d="M17.999 25c2.209 0 4 1.791 4 4s-1.791 4-4 4-4-1.791-4-4 1.791-4 4-4z" fill="#77B255"/><path d="M17.999 14c2.209 0 4 1.791 4 4s-1.791 4-4 4-4-1.791-4-4 1.791-4 4-4z" fill="#FFCC4D"/><path d="M17.999 3c2.209 0 4 1.791 4 4s-1.791 4-4 4-4-1.791-4-4 1.791-4 4-4z" fill="#DD2E44"/></svg>