<?xml version="1.0" encoding="UTF-8" standalone="no"?><svg xmlns="http://www.w3.org/2000/svg" height="45" viewBox="0 0 36 36" width="45"><path d="M15 26h6v4h-6z" fill="#F4900C"/><path d="M30 18c0 7 3 4 3 7 0 0 0 2-2 2H5c-2 0-2-2-2-2 0-3 3 0 3-7 0-5.523 6.477-8 12-8s12 2.477 12 8z" fill="#FFAC33"/><circle cx="18" cy="10" fill="#FFAC33" r="3"/><path d="M35 33c0 1.104-.896 2-2 2H3c-1.104 0-2-.896-2-2s.896-2 2-2h30c1.104 0 2 .896 2 2z" fill="#C1694F"/><path d="M33 31c0 1.104-.896 2-2 2H5c-1.104 0-2-.896-2-2s.896-2 2-2h26c1.104 0 2 .896 2 2z" fill="#C1694F"/></svg>