<?xml version="1.0" encoding="UTF-8" standalone="no"?><svg xmlns="http://www.w3.org/2000/svg" height="45" viewBox="0 0 36 36" width="45"><circle cx="18" cy="18" fill="#99AAB5" r="18"/><circle cx="18" cy="18" fill="#E1E8ED" r="14"/><path d="M17 29c0 .553.447 1 1 1 .553 0 1-.447 1-1V18c0-.552-.447-1-1-1-.553 0-1 .448-1 1v11z" fill="#66757F"/><path d="M13 9.34c-.479.276-.643.888-.366 1.367l4.5 7.793c.276.479.888.643 1.367.367.478-.276.642-.889.365-1.367l-4.5-7.793c-.277-.479-.889-.643-1.366-.367z" fill="#66757F"/></svg>