<?xml version="1.0" encoding="UTF-8" standalone="no"?><svg xmlns="http://www.w3.org/2000/svg" height="45" viewBox="0 0 36 36" width="45"><circle cx="18" cy="18" fill="#99AAB5" r="18"/><circle cx="18" cy="18" fill="#E1E8ED" r="14"/><path d="M17 18c0 .553.448 1 1 1 .553 0 1-.447 1-1V7c0-.552-.447-1-1-1-.552 0-1 .448-1 1v11z" fill="#66757F"/><path d="M9.339 13c-.276.479-.112 1.09.366 1.366l7.795 4.5c.478.276 1.089.112 1.365-.366s.112-1.09-.365-1.366l-7.795-4.5c-.478-.276-1.09-.112-1.366.366z" fill="#66757F"/></svg>