<?xml version="1.0" encoding="UTF-8" standalone="no"?><svg xmlns="http://www.w3.org/2000/svg" height="45" viewBox="0 0 36 36" width="45"><circle cx="18" cy="6" fill="#CCD6DD" r="6"/><path d="M11 12h14v21H11z" fill="#FFF"/><path d="M11 28.487L20.251 33H25v-2.134l-14-6.83z" fill="#DD2E44"/><path d="M11 19.585l14 6.83v-4.45l-14-6.831z" fill="#55ACEE"/><path d="M13.697 12L25 17.514V12z" fill="#DD2E44"/><path d="M27 11c0 1.104-.896 2-2 2H11c-1.104 0-2-.896-2-2s.896-2 2-2h14c1.104 0 2 .896 2 2zm0 23c0 1.104-.896 2-2 2H11c-1.104 0-2-.896-2-2s.896-2 2-2h14c1.104 0 2 .896 2 2z" fill="#99AAB5"/></svg>