<?xml version="1.0" encoding="UTF-8" standalone="no"?><svg xmlns="http://www.w3.org/2000/svg" height="45" viewBox="0 0 36 36" width="45"><path d="M8 17H0v15c0 2.209 1.791 4 4 4s4-1.791 4-4c0 2.209 1.791 4 4 4h20c2.209 0 4-1.791 4-4V17H8z" fill="#292F33"/><path d="M32 10H12c-2.209 0-4 1.791-4 4 0-2.209-1.791-4-4-4s-4 1.791-4 4v15c0 2.209 1.791 4 4 4s4-1.791 4-4c0 2.209 1.791 4 4 4h20c2.209 0 4-1.791 4-4V14c0-2.209-1.791-4-4-4z" fill="#66757F"/><path d="M21 16c0 1.104-.896 2-2 2h-7c-1.104 0-2-.896-2-2v-2c0-1.104.896-2 2-2h7c1.104 0 2 .896 2 2v2z" fill="#C6E5B3"/><g fill="#CCD6DD"><circle cx="11.5" cy="21.5" r="1.5"/><circle cx="15.5" cy="21.5" r="1.5"/><circle cx="19.5" cy="21.5" r="1.5"/><circle cx="11.5" cy="25.5" r="1.5"/><circle cx="15.5" cy="25.5" r="1.5"/><circle cx="19.5" cy="25.5" r="1.5"/><circle cx="11.5" cy="29.5" r="1.5"/><circle cx="15.5" cy="29.5" r="1.5"/><circle cx="19.5" cy="29.5" r="1.5"/></g><path d="M34 21c0 .553-.447 1-1 1h-9c-.553 0-1-.447-1-1 0-.553.447-1 1-1h9c.553 0 1 .447 1 1zm0 3c0 .553-.447 1-1 1h-9c-.553 0-1-.447-1-1 0-.553.447-1 1-1h9c.553 0 1 .447 1 1zm0 3c0 .553-.447 1-1 1h-9c-.553 0-1-.447-1-1 0-.553.447-1 1-1h9c.553 0 1 .447 1 1zm0 3c0 .553-.447 1-1 1h-9c-.553 0-1-.447-1-1 0-.553.447-1 1-1h9c.553 0 1 .447 1 1z" fill="#99AAB5"/><circle cx="25" cy="15" fill="#CCD6DD" r="2"/><circle cx="32" cy="15" fill="#CCD6DD" r="2"/><path d="M32 10H12V4c0-2.209 1.791-4 4-4h12c2.209 0 4 1.791 4 4v6z" fill="#CCD6DD"/><path d="M30 4c0 .553-.447 1-1 1H15c-.553 0-1-.447-1-1 0-.553.447-1 1-1h14c.553 0 1 .447 1 1zm-8 3c0 .553-.447 1-1 1h-6c-.553 0-1-.447-1-1 0-.553.447-1 1-1h6c.553 0 1 .447 1 1z" fill="#99AAB5"/></svg>