<?xml version="1.0" encoding="UTF-8" standalone="no"?><svg xmlns="http://www.w3.org/2000/svg" height="45" viewBox="0 0 36 36" width="45"><path d="M36 34c0 1.104-.896 2-2 2H2c-1.104 0-2-.896-2-2V15c0-1.104.896-2 2-2h32c1.104 0 2 .896 2 2v19z" fill="#FFCC4D"/><path d="M34 13H2c-1.104 0-2 .896-2 2h36c0-1.104-.896-2-2-2z" fill="#6D6E71"/><path d="M2 24h32v4H2zm0-6h32v4H2zm0 12h32v4H2z" fill="#3B88C3"/><path d="M28 17h2v18h-2z" fill="#FFCC4D"/><path d="M22 0H6C4.896 0 4 .896 4 2v34h20V2c0-1.104-.896-2-2-2z" fill="#FFE8B6"/><path d="M22 0H6C4.896 0 4 .896 4 2h20c0-1.104-.896-2-2-2z" fill="#808285"/><path d="M6 18h16v4H6zm0 6h16v4H6zm0 6h16v4H6z" fill="#55ACEE"/><path d="M10 7h2v29h-2zm6 0h2v29h-2z" fill="#FFE8B6"/><path d="M12 30h4v6h-4z" fill="#269"/><circle cx="14" cy="9" fill="#A7A9AC" r="6"/><circle cx="14" cy="9" fill="#E6E7E8" r="4"/><path d="M17 10h-3c-.552 0-1-.448-1-1V4c0-.552.448-1 1-1s1 .448 1 1v4h2c.552 0 1 .448 1 1s-.448 1-1 1z" fill="#A0041E"/></svg>