<?xml version="1.0" encoding="UTF-8" standalone="no"?><svg xmlns="http://www.w3.org/2000/svg" height="45" viewBox="0 0 36 36" width="45"><path d="M35.538 26.679s1.328 2.214-2.658 6.201c-3.987 3.986-6.201 2.658-6.201 2.658L7.185 16.046s.977-2.748 3.544-5.316c2.568-2.567 5.316-3.544 5.316-3.544l19.493 19.493z" fill="#D99E82"/><path d="M13.388 9.844c.979.979 4.522 6.109 3.544 7.088-.979.978-6.109-2.565-7.088-3.544l-8.86-8.86C.006 3.549.006 1.963.984.984c.979-.978 2.565-.978 3.544 0l8.86 8.86z" fill="#C1694F"/><path d="M.983 4.528L4.528.984 9.844 6.3 6.3 9.844z" fill="#292F33"/><circle cx="19" cy="31" fill="#BE1931" r="5"/><path d="M19 36c-.552 0-1-.447-1-1v-8c0-.553.448-1 1-1 .553 0 1 .447 1 1v8c0 .553-.447 1-1 1z" fill="#662113"/></svg>