<?xml version="1.0" encoding="UTF-8" standalone="no"?><svg xmlns="http://www.w3.org/2000/svg" height="45" viewBox="0 0 36 36" width="45"><path d="M4 5s0-1 1-1h6s1 0 1 1v2H4V5z" fill="#66757F"/><path d="M0 10s0-4 4-4h28s4 0 4 4v18s0 4-4 4H4s-4 0-4-4V10z" fill="#31373D"/><circle cx="21" cy="19" fill="#CCD6DD" r="10"/><circle cx="21" cy="19" fill="#31373D" r="8"/><circle cx="21" cy="19" fill="#3B88C3" r="5"/><circle cx="32.5" cy="9.5" fill="#FFF" r="1.5"/><path d="M12 9.5c0 .829-.671 1.5-1.5 1.5h-5C4.671 11 4 10.329 4 9.5S4.671 8 5.5 8h5c.829 0 1.5.671 1.5 1.5z" fill="#F5F8FA"/></svg>