<?xml version="1.0" encoding="UTF-8" standalone="no"?><svg xmlns="http://www.w3.org/2000/svg" height="45" viewBox="0 0 36 36" width="45"><path d="M32 34c0 1.104-.896 2-2 2H6c-1.104 0-2-.896-2-2V7c0-1.104.896-2 2-2h24c1.104 0 2 .896 2 2v27z" fill="#C1694F"/><path d="M29 32c0 .553-.447 1-1 1H8c-.552 0-1-.447-1-1V9c0-.552.448-1 1-1h20c.553 0 1 .448 1 1v23z" fill="#FFF"/><path d="M25 3h-4c0-1.657-1.343-3-3-3s-3 1.343-3 3h-4c-1.104 0-2 .896-2 2v5h18V5c0-1.104-.896-2-2-2z" fill="#CCD6DD"/><circle cx="18" cy="3" fill="#292F33" r="2"/><path d="M20 14c0 .552-.447 1-1 1h-9c-.552 0-1-.448-1-1s.448-1 1-1h9c.553 0 1 .448 1 1zm7 4c0 .552-.447 1-1 1H10c-.552 0-1-.448-1-1s.448-1 1-1h16c.553 0 1 .448 1 1zm0 4c0 .553-.447 1-1 1H10c-.552 0-1-.447-1-1 0-.553.448-1 1-1h16c.553 0 1 .447 1 1zm0 4c0 .553-.447 1-1 1H10c-.552 0-1-.447-1-1 0-.553.448-1 1-1h16c.553 0 1 .447 1 1zm0 4c0 .553-.447 1-1 1h-9c-.552 0-1-.447-1-1 0-.553.448-1 1-1h9c.553 0 1 .447 1 1z" fill="#99AAB5"/></svg>