<?xml version="1.0" encoding="UTF-8" standalone="no"?><svg xmlns="http://www.w3.org/2000/svg" height="45" viewBox="0 0 36 36" width="45"><path d="M35 20c0 2.209-1.791 2-4 2H5c-2.209 0-4 .209-4-2L3 8c.125-1.917 1.791-4 4-4h22c2.209 0 3.791 2.208 4 4l2 12z" fill="#67757F"/><path d="M28 13c0 1.104-.896 2-2 2H10c-1.104 0-2-.896-2-2V5c0-1.105.896-2 2-2h16c1.104 0 2 .895 2 2v8z" fill="#CCD6DD"/><path d="M30 17c0 1.104-.896 2-2 2H8c-1.104 0-2-.896-2-2V9c0-1.104.896-2 2-2h20c1.104 0 2 .896 2 2v8z" fill="#E1E8ED"/><path d="M32 21c0 1.104-.896 2-2 2H6c-1.104 0-2-.896-2-2v-8c0-1.104.896-2 2-2h24c1.104 0 2 .896 2 2v8z" fill="#F5F8FA"/><path d="M35 31c0 2.209-1.791 4-4 4H5c-2.209 0-4-1.791-4-4V20c0-2.209 1.791-4 4-4h26c2.209 0 4 1.791 4 4v11z" fill="#9AAAB4"/><path d="M14 12zm0 0z" fill="#67757F"/><path d="M22 1h-5c-1.104 0-2 .895-2 2v1h4c1.104 0 2 .896 2 2h1c1.104 0 2-.896 2-2V3c0-1.105-.896-2-2-2z" fill="#FCAB40"/><path d="M18 5h-5c-1.104 0-2 .896-2 2v1h4c1.104 0 2 .896 2 2h1c1.104 0 2-.896 2-2V7c0-1.104-.896-2-2-2z" fill="#5DADEC"/><path d="M16 12c0 1.104-.896 2-2 2H9c-1.104 0-2-.896-2-2v-1c0-1.104.896-2 2-2h5c1.104 0 2 .896 2 2v1z" fill="#E75A70"/><path d="M25 28c0 1.104-.896 2-2 2H13c-1.104 0-2-.896-2-2v-5c0-1.104.896-2 2-2h10c1.104 0 2 .896 2 2v5zm-11-4z" fill="#67757F"/><path d="M23 27c0 .553-.447 1-1 1h-8c-.552 0-1-.447-1-1v-3c0-.553.448-1 1-1h8c.553 0 1 .447 1 1v3z" fill="#E1E8ED"/></svg>