<?xml version="1.0" encoding="UTF-8" standalone="no"?><svg xmlns="http://www.w3.org/2000/svg" height="45" viewBox="0 0 36 36" width="45"><path d="M22 0h3l5 2.808 5 23.307L26 27l-6-16.423M14 0h-3L6 2.808 1 26.115 10 27l6-16.423" fill="#3B88C3"/><path d="M11 5h14v31H11z" fill="#3B88C3"/><path d="M17.985 8.761L11 14h2l5.094-5.094z" fill="#269"/><path d="M25 20s-1.167 1-7 1-7-1-7-1v-6h14v6z" fill="#88C9F9"/><path d="M25 18s-1.167 1-7 1-7-1-7-1v-2h14v2zm0-18l-7 9-7-9z" fill="#FFF"/><path d="M20.333 0L18 3l-2.333-3z" fill="#99AAB5"/><path d="M25 25V4l2 23zm-14 0V4L9 27z" fill="#269"/></svg>