<?xml version="1.0" encoding="UTF-8" standalone="no"?><svg xmlns="http://www.w3.org/2000/svg" height="45" viewBox="0 0 36 36" width="45"><path d="M36 27c0 2.209-1.791 4-4 4H4c-2.209 0-4-1.791-4-4V9c0-2.209 1.791-4 4-4h28c2.209 0 4 1.791 4 4v18z" fill="#C60A1D"/><path d="M0 12h36v12H0z" fill="#FFC400"/><path d="M9 17v3c0 1.657 1.343 3 3 3s3-1.343 3-3v-3H9z" fill="#EA596E"/><path d="M12 16h3v3h-3z" fill="#F4A2B2"/><path d="M9 16h3v3H9z" fill="#DD2E44"/><ellipse cx="12" cy="14.5" fill="#EA596E" rx="3" ry="1.5"/><ellipse cx="12" cy="13.75" fill="#FFAC33" rx="3" ry=".75"/><path d="M7 16h1v7H7zm9 0h1v7h-1z" fill="#99AAB5"/><path d="M6 22h3v1H6zm9 0h3v1h-3zm-8-7h1v1H7zm9 0h1v1h-1z" fill="#66757F"/></svg>