<?xml version="1.0" encoding="UTF-8" standalone="no"?><svg xmlns="http://www.w3.org/2000/svg" height="45" viewBox="0 0 36 36" width="45"><path d="M32 5H4C1.791 5 0 6.791 0 9v18c0 2.209 1.791 4 4 4h28c2.209 0 4-1.791 4-4V9c0-2.209-1.791-4-4-4z" fill="#002A8F"/><path d="M13.846 15H36v-5H6.923zM6.923 26H36v-5H13.846z" fill="#EEE"/><path d="M13.846 15l-6.923-5-5.541-4.002C.542 6.731 0 7.797 0 9v18c0 1.203.542 2.269 1.382 3.002L6.923 26l6.923-5L18 18l-4.154-3z" fill="#CF142B"/><path d="M7.495 18.602L9.5 17.149H7.022l-.769-2.362-.772 2.362H3l2.006 1.454-.771 2.36 2.015-1.459 2.015 1.459z" fill="#FFF"/></svg>