<?xml version="1.0" encoding="UTF-8" standalone="no"?><svg xmlns="http://www.w3.org/2000/svg" height="45" viewBox="0 0 36 36" width="45"><path d="M18 18V5H4C1.791 5 0 6.791 0 9v9h18zm0 0v13h14c2.209 0 4-1.791 4-4v-9H18z" fill="#EEE"/><path d="M18 18v13H4c-2.209 0-4-1.791-4-4v-9h18z" fill="#005293"/><path d="M18 18V5h14c2.209 0 4 1.791 4 4v9H18z" fill="#D21034"/><path d="M9.674 10.573L9 8.5l-.674 2.073H6.147l1.763 1.281-.673 2.073L9 12.646l1.763 1.281-.673-2.073 1.763-1.281z" fill="#005293"/><path d="M25.91 24.854l-.673 2.073L27 25.646l1.763 1.281-.673-2.073 1.763-1.281h-2.179L27 21.5l-.674 2.073h-2.179z" fill="#D21034"/></svg>