<?xml version="1.0" encoding="UTF-8" standalone="no"?><svg xmlns="http://www.w3.org/2000/svg" height="45" viewBox="0 0 36 36" width="45"><circle cx="18" cy="18" fill="#F4900C" r="18"/><circle cx="18" cy="18" fill="#FFD983" r="14.5"/><circle cx="18" cy="18" fill="#F5F8FA" r="13"/><path d="M18 8l1.531 6.304 5.54-3.375-3.375 5.54L28 18l-6.304 1.531 3.375 5.54-5.54-3.375L18 28l-1.531-6.304-5.54 3.375 3.375-5.54L8 18l6.304-1.531-3.375-5.54 5.54 3.375z" fill="#CCD6DD"/><path d="M17.343 20.748l8.777 5.381-5.379-8.778z" fill="#292F33"/><path d="M18.657 15.267L9.879 9.886l5.38 8.779z" fill="#DD2E44"/><circle cx="18" cy="18.008" fill="#8899A6" r="3.055"/><circle cx="18" cy="18.008" fill="#F5F8FA" r="1.648"/></svg>