<?xml version="1.0" encoding="UTF-8" standalone="no"?><svg xmlns="http://www.w3.org/2000/svg" height="45" viewBox="0 0 36 36" width="45"><path d="M35 36H1c-.55 0-1-.45-1-1V1c0-.55.45-1 1-1h34c.55 0 1 .45 1 1v34c0 .55-.45 1-1 1z" fill="#D79E84"/><path d="M1 36h34c.55 0 1-.45 1-1V1c0-.275-.112-.525-.294-.706L.294 35.706C.475 35.888.725 36 1 36z" fill="#BF6952"/><path d="M2 2h32v32H2z" fill="#8CCAF7"/><path d="M2 34V2h32z" fill="#FFF" opacity=".5"/><path d="M17 2h2v32h-2z" fill="#BF6952"/><path d="M2 19v-2h32v2z" fill="#BF6952"/></svg>