<?xml version="1.0" encoding="UTF-8" standalone="no"?><svg xmlns="http://www.w3.org/2000/svg" height="45" viewBox="0 0 36 36" width="45"><circle cx="18" cy="18" fill="#99AAB5" r="18"/><circle cx="18" cy="18" fill="#E1E8ED" r="14"/><path d="M18 19c-.552 0-1-.447-1-1V6c0-.552.448-1 1-1 .553 0 1 .448 1 1v12c0 .553-.447 1-1 1z" fill="#67757F"/><path d="M18.001 19c-.367 0-.72-.202-.896-.553l-4-8c-.247-.494-.047-1.095.447-1.342.496-.248 1.095-.046 1.342.447l4 8c.247.494.047 1.095-.447 1.342-.143.072-.296.106-.446.106z" fill="#67757F"/></svg>