<?xml version="1.0" encoding="UTF-8" standalone="no"?><svg xmlns="http://www.w3.org/2000/svg" height="45" viewBox="0 0 36 36" width="45"><path d="M2 36s-2 0-2-2V2s0-2 2-2h32.031C36 0 36 2 36 2v32s0 2-2 2H2z" fill="#31373D"/><path d="M19 33s0 1 1 1h5c1 0 1-1 1-1V5h-7v28zm9-28v28s0 1 1 1h4c1 0 1-1 1-1V5h-6zM10 33s0 1 1 1h5c1 0 1-1 1-1V5h-7v28zm-8 0s0 1 1 1h4c1 0 1-1 1-1V5H2v28z" fill="#E1E8ED"/><path d="M30 23s0 1-1 1h-4c-1 0-1-1-1-1V3h6v20zm-9 0s0 1-1 1h-4c-1 0-1-1-1-1V3h6v20zm-9 0s0 1-1 1H7c-1 0-1-1-1-1V3h6v20z" fill="#31373D"/></svg>