<?xml version="1.0" encoding="UTF-8" standalone="no"?><svg xmlns="http://www.w3.org/2000/svg" height="45" viewBox="0 0 36 36" width="45"><path d="M11 0C6.582 0 3 3.582 3 8v8h2V8c0-3.313 2.687-6 6-6 3.314 0 6 2.687 6 6v8h2V8c0-4.418-3.582-8-8-8z" fill="#F4900C"/><path d="M1 8l2 2 2-2 2 2 2-2 2 2 2-2 2 2 2-2 2 2 2-2v23H1z" fill="#DD2E44"/><path d="M25 5c-4.418 0-8 3.582-8 8v8h2v-8c0-3.314 2.688-6 6-6 3.315 0 6 2.686 6 6v8h2v-8c0-4.418-3.582-8-8-8z" fill="#FFCC4D"/><path d="M15 13l2 2 2-2 2 2 2-2 2 2 2-2 2 2 2-2 2 2 2-2v23H15z" fill="#744EAA"/></svg>