<?xml version="1.0" encoding="UTF-8" standalone="no"?><svg xmlns="http://www.w3.org/2000/svg" height="45" viewBox="0 0 36 36" width="45"><circle cx="18" cy="18" fill="#FFCC4D" r="18"/><path d="M25.485 27.379C25.44 27.2 24.317 23 18 23c-6.318 0-7.44 4.2-7.485 4.379-.055.217.043.442.237.554.195.111.439.078.6-.077C11.371 27.837 13.306 26 18 26s6.63 1.837 6.648 1.855c.096.095.224.145.352.145.084 0 .169-.021.246-.064.196-.112.294-.339.239-.557z" fill="#664500"/><ellipse cx="12" cy="13.5" fill="#664500" rx="2.5" ry="3.5"/><ellipse cx="24" cy="13.5" fill="#664500" rx="2.5" ry="3.5"/></svg>