<?xml version="1.0" encoding="UTF-8" standalone="no"?><svg xmlns="http://www.w3.org/2000/svg" height="45" viewBox="0 0 36 36" width="45"><path d="M31 15c0 1.104-.896 2-2 2H7c-1.104 0-2-.896-2-2V7c0-1.104.896-2 2-2h22c1.104 0 2 .896 2 2v8z" fill="#FDCB58"/><path d="M33 19c0 1.104-.896 2-2 2H5c-1.104 0-2-.896-2-2v-8c0-1.104.896-2 2-2h26c1.104 0 2 .896 2 2v8z" fill="#FDD888"/><path d="M35 33c0 1.104-.896 2-2 2H3c-1.104 0-2-.896-2-2V15c0-1.104.896-2 2-2h30c1.104 0 2 .896 2 2v18z" fill="#FEE7B8"/><path d="M11 14zm0 0z" fill="#67757F"/><path d="M23 3h-5c-1.104 0-2 .895-2 2v1h2c1.104 0 2 .896 2 2h3c1.104 0 2-.896 2-2V5c0-1.105-.896-2-2-2z" fill="#78B159"/><path d="M17 7h-5c-1.104 0-2 .896-2 2v1h2c1.104 0 2 .896 2 2h3c1.104 0 2-.896 2-2V9c0-1.104-.896-2-2-2z" fill="#F18F26"/><path d="M13 14c0 1.104-.896 2-2 2H6c-1.104 0-2-.896-2-2v-1c0-1.104.896-2 2-2h5c1.104 0 2 .896 2 2v1z" fill="#9268CA"/></svg>