<?xml version="1.0" encoding="UTF-8" standalone="no"?><svg xmlns="http://www.w3.org/2000/svg" height="45" viewBox="0 0 36 36" width="45"><path d="M0 18v16c0 1.104.896 2 2 2h32c1.104 0 2-.896 2-2V18H0z" fill="#AAB8C2"/><path d="M0 18l18-6.352L36 18z" fill="#66757F"/><path d="M2 20h32v4H2zm0 6h32v4H2z" fill="#55ACEE"/><path d="M6 19h24v16H6z" fill="#AAB8C2"/><path d="M8 5h20v31H8z" fill="#CCD6DD"/><path d="M10 20h16v4H10zm0 6h16v4H10z" fill="#55ACEE"/><path d="M14 13h2v18h-2zm6 0h2v18h-2z" fill="#CCD6DD"/><path d="M16 32h4v4h-4z" fill="#3B88C3"/><path d="M13 7h10v2H13zm0 4v2h4v4h2v-4h4v-2z" fill="#DD2E44"/><path d="M8 5l10-5 10 5z" fill="#66757F"/></svg>