<?xml version="1.0" encoding="UTF-8" standalone="no"?><svg xmlns="http://www.w3.org/2000/svg" height="45" viewBox="0 0 36 36" width="45"><path d="M20 26c0 .553-.447 1-1 1-.552 0-1-.447-1-1V1c0-.552.448-1 1-1 .553 0 1 .448 1 1v25z" fill="#A7A9AC"/><path d="M3 24h31v8H12c-6 0-9-8-9-8z" fill="#D1D3D4"/><path d="M0 30h36v6H0z" fill="#55ACEE"/><path d="M5 22s2-5 5-9 8-8 8-8-1 11-1 16v1s-3-1-6-1-6 1-6 1z" fill="#FFAC33"/><path d="M20 2s6 6 9 11c2.771 4.618 4 9 4 9s-3-1-6-1-6 1-6 1v-1c0-9-1-19-1-19z" fill="#F4900C"/><path d="M2 24c-.552 0-1 .447-1 1s.448 1 1 1h33v-2H2z" fill="#E6E7E8"/></svg>