<?xml version="1.0" encoding="UTF-8" standalone="no"?><svg xmlns="http://www.w3.org/2000/svg" height="45" viewBox="0 0 36 36" width="45"><path d="M0 34h36v2H0z" fill="#939598"/><path d="M8 32c0-1.657-1.344-3-3-3s-3 1.343-3 3 1.343 3 3 3 3-1.343 3-3z" fill="#58595B"/><path d="M7 32c0-1.105-.896-2-2-2s-2 .895-2 2 .896 2 2 2 2-.895 2-2z" fill="#292F33"/><path d="M16 32c0-1.657-1.344-3-3-3s-3 1.343-3 3 1.343 3 3 3 3-1.343 3-3z" fill="#58595B"/><path d="M15 32c0-1.105-.896-2-2-2s-2 .895-2 2 .896 2 2 2 2-.895 2-2z" fill="#292F33"/><circle cx="32" cy="32" fill="#58595B" r="3"/><circle cx="32" cy="32" fill="#292F33" r="2"/><circle cx="24" cy="32" fill="#58595B" r="3"/><circle cx="24" cy="32" fill="#292F33" r="2"/><path d="M0 28h36v4H0z" fill="#5C913B"/><path d="M0 16h36v12H0z" fill="#FFE8B6"/><path d="M0 26h36v2H0z" fill="#FFAC33"/><path d="M32.555 14H3.445C1.969 14 .693 14.81 0 16h36c-.693-1.19-1.969-2-3.445-2z" fill="#77B255"/><path d="M5 22c0 .553-.447 1-1 1H2c-.552 0-1-.447-1-1v-2c0-.553.448-1 1-1h2c.553 0 1 .447 1 1v2zm6 0c0 .553-.447 1-1 1H8c-.552 0-1-.447-1-1v-2c0-.553.448-1 1-1h2c.553 0 1 .447 1 1v2zm6 0c0 .553-.447 1-1 1h-2c-.553 0-1-.447-1-1v-2c0-.553.447-1 1-1h2c.553 0 1 .447 1 1v2zm6 0c0 .553-.447 1-1 1h-2c-.553 0-1-.447-1-1v-2c0-.553.447-1 1-1h2c.553 0 1 .447 1 1v2zm6 0c0 .553-.447 1-1 1h-2c-.553 0-1-.447-1-1v-2c0-.553.447-1 1-1h2c.553 0 1 .447 1 1v2zm6 0c0 .553-.447 1-1 1h-2c-.553 0-1-.447-1-1v-2c0-.553.447-1 1-1h2c.553 0 1 .447 1 1v2z" fill="#55ACEE"/></svg>