<?xml version="1.0" encoding="UTF-8" standalone="no"?><svg xmlns="http://www.w3.org/2000/svg" height="45" viewBox="0 0 36 36" width="45"><path d="M14 34c0 1.104.896 2 2 2h18c1.104 0 2-.896 2-2V14c0-1.104-.896-2-2-2H16c-1.104 0-2 .896-2 2v20z" fill="#FFCC4D"/><path d="M34 12H20v2h16c0-1.104-.896-2-2-2z" fill="#BCBEC0"/><path d="M20 16h14v20H20z" fill="#55ACEE"/><path d="M18 0H2C.896 0 0 .896 0 2v32c0 1.104.896 2 2 2h18V2c0-1.104-.896-2-2-2z" fill="#FFE8B6"/><path d="M18 0H2C.896 0 0 .896 0 2h20c0-1.104-.896-2-2-2z" fill="#BCBEC0"/><path d="M2 22h16v4H2zm0-6h16v4H2zm0-6h16v4H2zm0-6h16v4H2zm0 24h16v8H2z" fill="#55ACEE"/><path d="M6 32h8v4H6zm17 0h8v4h-8z" fill="#3B88C3"/><path d="M20 26h15v2H20zm0-6h15v2H20z" fill="#FFCC4D"/><path d="M36 7c0 1.104-.896 2-2 2H24c-1.104 0-2-.896-2-2V5c0-1.104.896-2 2-2h10c1.104 0 2 .896 2 2v2z" fill="#DD2E44"/><path d="M26 9h2v3h-2zm4 0h2v3h-2z" fill="#58595B"/><path d="M24 5h2v2h-2z" fill="#F4ABBA"/><path d="M26 5h2v2h-2z" fill="#FFF"/><path d="M28 5h2v2h-2z" fill="#F4ABBA"/><path d="M30 5h2v2h-2z" fill="#FFF"/><path d="M32 5h2v2h-2z" fill="#F4ABBA"/></svg>