<?xml version="1.0" encoding="UTF-8" standalone="no"?><svg xmlns="http://www.w3.org/2000/svg" height="45" viewBox="0 0 36 36" width="45"><path d="M32 5H4C1.791 5 0 6.791 0 9v18c0 2.209 1.791 4 4 4h28c2.209 0 4-1.791 4-4V9c0-2.209-1.791-4-4-4z" fill="#12AD2B"/><path d="M8.173 13.5H36v9H8.173z" fill="#FFCE00"/><path d="M1.149 6.195C.438 6.917 0 7.907 0 9v18c0 1.093.438 2.083 1.148 2.805L12.5 18 1.149 6.195z" fill="#D21034"/><path d="M18.004 20.36l1.625-1.181 1.624 1.181-.62-1.91 1.624-1.181h-2.008l-.62-1.909-.621 1.909H17l1.625 1.181zm9.5 0l1.625-1.181 1.624 1.181-.62-1.91 1.624-1.181h-2.008l-.62-1.909-.621 1.909H26.5l1.625 1.181z"/></svg>