<?xml version="1.0" encoding="UTF-8" standalone="no"?><svg xmlns="http://www.w3.org/2000/svg" height="45" viewBox="0 0 36 36" width="45"><path d="M16 34.375c0 .553-.448 1-1 1s-1-.447-1-1V26c0-.553.448-1 1-1s1 .447 1 1v8.375z" fill="#67757F"/><circle cx="15.41" cy="15.625" fill="#E1E8ED" r="13.873"/><path d="M3.592 16.139c.232 6.334 5.427 11.402 11.818 11.402s11.586-5.068 11.818-11.402H3.592z" fill="#50A5E6"/><path d="M30 24c0 1.104-.896 2-2 2H3c-1.104 0-2-.896-2-2s.896-2 2-2h25c1.104 0 2 .896 2 2z" fill="#67757F"/><path d="M2.622 35.207c-.186.521-.758.791-1.278.605-.52-.186-.791-.758-.605-1.278l3.317-9.262c.186-.52.758-.791 1.278-.605.52.186.792.758.605 1.278l-3.317 9.262zm25.757 0c.185.521.758.791 1.277.605.52-.186.791-.758.605-1.278l-3.359-9.345c-.185-.521-.758-.791-1.277-.606-.52.186-.791.758-.605 1.278l3.359 9.346z" fill="#67757F"/><path d="M19.006 2.266S32.36 6.948 33.778 7.404c3.725 1.199 2.184 5.224-.385 4.582-5.083-1.271-14.387-4.068-15.415-4.068s1.028-5.652 1.028-5.652z" fill="#E1E8ED"/><path d="M29 23c0 .553-.447 1-1 1H3c-.552 0-1-.447-1-1 0-.553.448-1 1-1h25c.553 0 1 .447 1 1z" fill="#9AAAB4"/><ellipse cx="15.41" cy="16.139" fill="#3B94D9" rx="11.818" ry="1.629"/><ellipse cx="34.047" cy="9.982" fill="#AAB8C2" rx="1.341" ry=".974" transform="rotate(-74.365 34.047 9.981)"/></svg>