<?xml version="1.0" encoding="UTF-8" standalone="no"?><svg xmlns="http://www.w3.org/2000/svg" height="45" viewBox="0 0 36 36" width="45"><path d="M14 7h2v29h-2z" fill="#6D6E71"/><path d="M15 19h3v2h-3zm0-6h3v2h-3z" fill="#6D6E71"/><path d="M29 24c0 .553-.447 1-1 1h-9c-.553 0-1-.447-1-1V10c0-.552.447-1 1-1h9c.553 0 1 .448 1 1v14z" fill="#BCBEC0"/><path d="M29 13v-3c0-.552-.447-1-1-1h-9c-.553 0-1 .448-1 1v3h11z" fill="#BE1931"/><path d="M21 34H9l-1 1v1h14v-1zm-2-2h-8l-1 1v1h10v-1z" fill="#6D6E71"/><circle cx="15" cy="4" fill="#BE1931" r="4"/><path d="M20 13h3v3h-3z" fill="#808285"/><path d="M20 17h3v3h-3zm0 4h3v3h-3z" fill="#F4900C"/><path d="M24 13h3v3h-3zm0 4h3v3h-3z" fill="#808285"/><path d="M24 21h3v3h-3z" fill="#F4900C"/><path d="M13 2h4v4h-4zm7 8h7v2h-7z" fill="#DD2E44"/></svg>