<?xml version="1.0" encoding="UTF-8" standalone="no"?><svg xmlns="http://www.w3.org/2000/svg" height="45" viewBox="0 0 36 36" width="45"><path d="M24 10c0 1.104-.896 2-2 2h-8c-1.104 0-2-.896-2-2V2c0-1.104.896-2 2-2h8c1.104 0 2 .896 2 2v8zM0 14v20c0 1.104.896 2 2 2h32c1.104 0 2-.896 2-2V14H0z" fill="#CCD6DD"/><path d="M18 12H2c-1.104 0-2 .896-2 2h20c0-1.104-.896-2-2-2z" fill="#99AAB5"/><path d="M34 12H18c-1.104 0-2 .896-2 2h20c0-1.104-.896-2-2-2z" fill="#99AAB5"/><path d="M2 22h32v4H2zm0-6h32v4H2zm0 12h32v4H2z" fill="#55ACEE"/><path d="M8 12h20v24H8z" fill="#E1E8ED"/><path d="M10 20h16v4H10zm0-6h16v4H10zm0 12h16v4H10z" fill="#55ACEE"/><path d="M13 32h10v4H13z" fill="#3B88C3"/><path d="M22 4h-3V1h-2v3h-3v2h3v3h2V6h3z" fill="#DD2E44"/><path d="M26 10H10c-1.104 0-2 .896-2 2h20c0-1.104-.896-2-2-2z" fill="#99AAB5"/></svg>