<?xml version="1.0" encoding="UTF-8" standalone="no"?><svg xmlns="http://www.w3.org/2000/svg" height="45" viewBox="0 0 36 36" width="45"><path d="M31 25H11v-1c0-2.209-1.791-4-4-4H4c-2.209 0-4 1.791-4 4v3c0 2.209 1.791 4 4 4h28c2.209 0 4-1.791 4-4v-2h-5z" fill="#99AAB5"/><path d="M10 12H7.146C4 12 3 14 3 14l-3 5.959V25h13V15c0-1.657-1.343-3-3-3z" fill="#FFCC4D"/><path d="M9 20H2l2-4s1-2 3-2h2v6z" fill="#55ACEE"/><circle cx="6" cy="31" fill="#292F33" r="4"/><circle cx="6" cy="31" fill="#CCD6DD" r="2"/><circle cx="30" cy="31" fill="#292F33" r="4"/><circle cx="30" cy="31" fill="#CCD6DD" r="2"/><circle cx="20" cy="31" fill="#292F33" r="4"/><circle cx="20" cy="31" fill="#CCD6DD" r="2"/><path d="M32 8H19c-2.209 0-4 1.791-4 4v13h21V12c0-2.209-1.791-4-4-4z" fill="#77B255"/></svg>