<?xml version="1.0" encoding="UTF-8" standalone="no"?><svg xmlns="http://www.w3.org/2000/svg" height="45" viewBox="0 0 36 36" width="45"><path d="M36 27c0 2.209-1.791 4-4 4H4c-2.209 0-4-1.791-4-4v-3c0-2.209 1.791-4 4-4h28c2.209 0 4 1.791 4 4v3z" fill="#DD2E44"/><path d="M19 13l-.979-1H7.146C4 12 3 14 3 14l-3 5.959V25h19V13z" fill="#FFCC4D"/><path d="M9 20H2l2-4s1-2 3-2h2v6z" fill="#55ACEE"/><circle cx="9" cy="31" fill="#292F33" r="4"/><circle cx="9" cy="31" fill="#CCD6DD" r="2"/><circle cx="27" cy="31" fill="#292F33" r="4"/><circle cx="27" cy="31" fill="#CCD6DD" r="2"/><path d="M32 8H17c-2.209 0-4 1.791-4 4v13h23V12c0-2.209-1.791-4-4-4z" fill="#CCD6DD"/></svg>