<?xml version="1.0" encoding="UTF-8" standalone="no"?><svg xmlns="http://www.w3.org/2000/svg" height="45" viewBox="0 0 36 36" width="45"><path d="M16 5h4v3h-4z" fill="#292F33"/><path d="M22 1h-8c-1.1 0-2 .9-2 2s.9 2 2 2h8c1.1 0 2-.9 2-2s-.9-2-2-2zm6.184 10.507l-1.504-1.318c-.827-.725-.911-1.995-.186-2.822.725-.827 1.995-.911 2.822-.186l1.504 1.318c.827.725.911 1.995.186 2.822-.725.827-1.995.911-2.822.186z" fill="#8899A6"/><circle cx="18" cy="21" fill="#F5F8FA" r="11"/><path d="M18 7C10.268 7 4 13.268 4 21s6.268 14 14 14 14-6.268 14-14S25.732 7 18 7zm0 25c-6.065 0-11-4.935-11-11s4.935-11 11-11 11 4.935 11 11-4.935 11-11 11z" fill="#66757F"/><path d="M27 22H17c-.552 0-1-.447-1-1s.448-1 1-1h10c.553 0 1 .447 1 1s-.447 1-1 1z" fill="#292F33"/><circle cx="18" cy="12" fill="#292F33" r="1"/><circle cx="18" cy="30" fill="#292F33" r="1"/><circle cx="12" cy="15" fill="#292F33" r="1"/><circle cx="24" cy="27" fill="#292F33" r="1"/><circle cx="9" cy="21" fill="#292F33" r="1"/><circle cx="24" cy="15" fill="#292F33" r="1"/><path d="M12 28c-.256 0-.512-.098-.707-.293-.391-.391-.391-1.023 0-1.414l7-7c.391-.391 1.023-.391 1.414 0s.391 1.023 0 1.414l-7 7c-.195.195-.451.293-.707.293z" fill="#DD2E44"/></svg>