<?xml version="1.0" encoding="UTF-8" standalone="no"?><svg xmlns="http://www.w3.org/2000/svg" height="45" viewBox="0 0 36 36" width="45"><path d="M32 5H4c-1.016 0-1.94.382-2.646 1.006L17.5 18H36V9c0-2.209-1.791-4-4-4z" fill="#6AB2E7"/><path d="M32 31H4c-1.016 0-1.94-.382-2.646-1.006L17.5 18H36v9c0 2.209-1.791 4-4 4z" fill="#12AD2B"/><path d="M1.383 29.973L17.5 18 1.354 6.006C.525 6.739 0 7.807 0 9v17.5c0 1.48.537 2.683 1.383 3.473z" fill="#EEE"/><path d="M6.5 14.5l.826 2.543H10l-2.163 1.572.826 2.543L6.5 19.586l-2.163 1.572.826-2.543L3 17.043h2.674L6.5 14.5z" fill="#D7141A"/></svg>