<?xml version="1.0" encoding="UTF-8" standalone="no"?><svg xmlns="http://www.w3.org/2000/svg" height="45" viewBox="0 0 36 36" width="45"><path d="M0 27c0 2.209 1.791 4 4 4h28c2.209 0 4-1.791 4-4v-1H0v1zm0-8h36v4H0z" fill="#0038A8"/><path d="M0 23h36v3H0z" fill="#EEE"/><path d="M36 9c0-2.209-1.791-4-4-4H16v4h20zm-20 3h20v4H16z" fill="#0038A8"/><path d="M16 9V5H4C1.791 5 0 6.791 0 9v10h36v-3H16v-4h20V9H16z" fill="#EEE"/><path d="M13 12c0-2.762-2.238-5-5-5s-5 2.239-5 5 2.239 5 5 5c2.762 0 5-2.239 5-5z" fill="#FFD983"/><path d="M12 12c0-2.209-1.79-4-4-4-2.209 0-4 1.791-4 4 0 2.208 1.791 4 4 4 2.21 0 4-1.792 4-4z" fill="#FFCC4D"/><path d="M8 5.597l.633 4.041 2.569-3.183-1.473 3.816 3.816-1.473-3.183 2.569 4.041.633-4.041.633 3.183 2.569-3.816-1.473 1.473 3.816-2.569-3.183L8 18.403l-.633-4.041-2.569 3.183 1.473-3.816-3.816 1.473 3.183-2.569L1.597 12l4.041-.633-3.183-2.569 3.816 1.473-1.473-3.816 2.569 3.183z" fill="#FFAC33"/><path d="M11 12c0-1.657-1.343-3-3-3s-3 1.343-3 3c0 1.656 1.343 3 3 3s3-1.344 3-3z" fill="#C1694F"/><path d="M5.834 12.004c0-1.19.964-2.154 2.153-2.154s2.153.964 2.153 2.154c0 1.189-.964 2.152-2.153 2.152s-2.153-.964-2.153-2.152z" fill="#FFAC33"/></svg>