<?xml version="1.0" encoding="UTF-8" standalone="no"?><svg xmlns="http://www.w3.org/2000/svg" height="45" viewBox="0 0 36 36" width="45"><path d="M26 21H10c-.552 0-1 .448-1 1v1c0 .552.448 1 1 1h16c.552 0 1-.448 1-1v-1c0-.552-.448-1-1-1z" fill="#D99E82"/><path d="M10 22.5h16V24H10z" fill="#662113"/><path d="M26 13H10c-.552 0-1 .448-1 1v1c0 .552.448 1 1 1h16c.552 0 1-.448 1-1v-1c0-.552-.448-1-1-1z" fill="#D99E82"/><path d="M10 14.5h16V16H10z" fill="#662113"/><path d="M26 5H10c-.552 0-1 .448-1 1v1c0 .552.448 1 1 1h16c.552 0 1-.448 1-1V6c0-.552-.448-1-1-1zm0 24H10c-.552 0-1 .448-1 1v1c0 .552.448 1 1 1h16c.552 0 1-.448 1-1v-1c0-.552-.448-1-1-1z" fill="#D99E82"/><path d="M10 6.5h16V8H10zm0 24h16V32H10z" fill="#662113"/><path d="M8 35h2c.55 0 1-.45 1-1V2c0-.55-.45-1-1-1H8c-.55 0-1 .45-1 1v32c0 .55.45 1 1 1z" fill="#D99E82"/><path d="M10 35c.55 0 1-.45 1-1V2c0-.55-.45-1-1-1s-1 .45-1 1v32c0 .55.45 1 1 1z" fill="#662113"/><path d="M26.043 35h2c.55 0 1-.45 1-1V2c0-.55-.45-1-1-1h-2c-.55 0-1 .45-1 1v32c0 .55.45 1 1 1z" fill="#BF6952"/><path d="M28.043 35c.55 0 1-.45 1-1V2c0-.55-.45-1-1-1s-1 .45-1 1v32c0 .55.45 1 1 1z" fill="#662113"/></svg>