<?xml version="1.0" encoding="UTF-8" standalone="no"?><svg xmlns="http://www.w3.org/2000/svg" height="45" viewBox="0 0 36 36" width="45"><path d="M36 32c0 2.209-1.791 4-4 4H4c-2.209 0-4-1.791-4-4V4c0-2.209 1.791-4 4-4h28c2.209 0 4 1.791 4 4v28z" fill="#CCD6DD"/><circle cx="27" cy="20.6" fill="#67757F" r=".686"/><circle cx="30.2" cy="21.515" fill="#67757F" r=".686"/><circle cx="23.8" cy="21.515" fill="#67757F" r=".686"/><circle cx="21.514" cy="23.8" fill="#67757F" r=".686"/><circle cx="20.6" cy="27" fill="#67757F" r=".686"/><circle cx="32.486" cy="23.8" fill="#67757F" r=".686"/><circle cx="33.401" cy="27" fill="#DA2F47" r=".686"/><circle cx="27" cy="27" r="4.881"/><circle cx="27" cy="27" fill="#292F33" r="3.994"/><path d="M28.182 24.118l-1.697 2.824c-.134.223-.062.512.161.646s.512.062.646-.161l1.697-2.824c.134-.223.062-.512-.161-.646-.223-.133-.512-.061-.646.161z" fill="#E1E8ED"/><circle cx="9" cy="20.6" fill="#67757F" r=".686"/><circle cx="12.2" cy="21.515" fill="#67757F" r=".686"/><circle cx="5.8" cy="21.515" fill="#67757F" r=".686"/><circle cx="3.514" cy="23.8" fill="#67757F" r=".686"/><circle cx="2.6" cy="27" fill="#67757F" r=".686"/><circle cx="14.486" cy="23.8" fill="#67757F" r=".686"/><circle cx="15.401" cy="27" fill="#DA2F47" r=".686"/><circle cx="9" cy="27" r="4.881"/><circle cx="9.001" cy="26.999" fill="#292F33" r="3.994"/><path d="M6.099 25.868l2.853 1.647c.225.13.513.053.643-.172.13-.225.053-.513-.172-.643L6.57 25.053c-.226-.13-.513-.053-.643.172-.13.225-.053.513.172.643z" fill="#E1E8ED"/><circle cx="27" cy="3.6" fill="#67757F" r=".686"/><circle cx="30.2" cy="4.515" fill="#67757F" r=".686"/><circle cx="23.8" cy="4.515" fill="#67757F" r=".686"/><circle cx="21.514" cy="6.8" fill="#67757F" r=".686"/><circle cx="20.6" cy="10" fill="#67757F" r=".686"/><circle cx="32.486" cy="6.8" fill="#67757F" r=".686"/><circle cx="33.401" cy="10" fill="#DA2F47" r=".686"/><circle cx="27" cy="10" r="4.881"/><circle cx="27.001" cy="10" fill="#292F33" r="3.994"/><path d="M25.011 7.603l1.697 2.824c.134.223.423.295.646.161.223-.134.295-.423.161-.646l-1.696-2.824c-.134-.223-.423-.295-.646-.161-.224.134-.296.424-.162.646z" fill="#E1E8ED"/><circle cx="9" cy="3.6" fill="#67757F" r=".686"/><circle cx="12.2" cy="4.515" fill="#67757F" r=".686"/><circle cx="5.8" cy="4.515" fill="#67757F" r=".686"/><circle cx="3.514" cy="6.8" fill="#67757F" r=".686"/><circle cx="2.6" cy="10" fill="#67757F" r=".686"/><circle cx="14.486" cy="6.8" fill="#67757F" r=".686"/><circle cx="15.401" cy="10" fill="#DA2F47" r=".686"/><circle cx="9" cy="9.999" r="4.881"/><circle cx="8.999" cy="10" fill="#292F33" r="3.994"/><path d="M11.431 8.053L8.578 9.7c-.225.13-.302.418-.172.643.13.225.418.302.643.172l2.853-1.647c.225-.13.302-.418.172-.643-.131-.225-.419-.302-.643-.172z" fill="#E1E8ED"/></svg>