<?xml version="1.0" encoding="UTF-8" standalone="no"?><svg xmlns="http://www.w3.org/2000/svg" height="45" viewBox="0 0 36 36" width="45"><path d="M14.174 17.075L6.75 7.594l-3.722 9.481z" fill="#F4900C"/><path d="M17.938 5.534l-6.563 12.389H24.5z" fill="#F4900C"/><path d="M21.826 17.075l7.424-9.481 3.722 9.481z" fill="#F4900C"/><path d="M28.669 15.19L23.887 3.523l-5.88 11.668-.007.003-.007-.004-5.88-11.668L7.331 15.19C4.197 10.833 1.28 8.042 1.28 8.042S3 20.75 3 33h30c0-12.25 1.72-24.958 1.72-24.958s-2.917 2.791-6.051 7.148z" fill="#FFCC4D"/><circle cx="17.957" cy="22" fill="#5C913B" r="3.688"/><circle cx="26.463" cy="22" fill="#981CEB" r="2.412"/><circle cx="32.852" cy="22" fill="#DD2E44" r="1.986"/><circle cx="9.45" cy="22" fill="#981CEB" r="2.412"/><circle cx="3.061" cy="22" fill="#DD2E44" r="1.986"/><path d="M33 34H3c-.552 0-1-.447-1-1s.448-1 1-1h30c.553 0 1 .447 1 1s-.447 1-1 1zm0-3.486H3c-.552 0-1-.447-1-1s.448-1 1-1h30c.553 0 1 .447 1 1s-.447 1-1 1z" fill="#FFAC33"/><circle cx="1.447" cy="8.042" fill="#FFCC4D" r="1.407"/><circle cx="6.75" cy="7.594" fill="#F4900C" r="1.192"/><circle cx="12.113" cy="3.523" fill="#FFCC4D" r="1.784"/><circle cx="34.553" cy="8.042" fill="#FFCC4D" r="1.407"/><circle cx="29.25" cy="7.594" fill="#F4900C" r="1.192"/><circle cx="23.887" cy="3.523" fill="#FFCC4D" r="1.784"/><circle cx="17.938" cy="5.534" fill="#F4900C" r="1.784"/></svg>