<?xml version="1.0" encoding="UTF-8" standalone="no"?><svg xmlns="http://www.w3.org/2000/svg" height="45" viewBox="0 0 36 36" width="45"><path d="M32 21v1h-2v-1c0-.446-.09-.867-.225-1.268 2.446-.757 4.224-3.038 4.224-5.733 0-3.314-2.687-6-6-6-1.603 0-3.055.632-4.131 1.656C23.241 6.433 20.405 4 17 4c-3.866 0-7 3.134-7 7 0 2.551 1.369 4.777 3.409 6H13c-2.209 0-4 1.791-4 4H8l-6-4H1v14h1l6-4h1v2c0 2.209 1.791 4 4 4h13c2.209 0 4-1.791 4-4v-3h2v1h3v-6h-3z" fill="#31373D"/><path d="M22 11c0 2.761-2.239 5-5 5s-5-2.239-5-5 2.239-5 5-5 5 2.238 5 5z" fill="#66757F"/><circle cx="17" cy="11" fill="#CCD6DD" r="2"/><circle cx="27.999" cy="14" fill="#66757F" r="4"/><circle cx="27.999" cy="14" fill="#CCD6DD" r="2"/><path d="M17 20h10v10H17z" fill="#8899A6"/><path d="M19 22h6v6h-6z" fill="#31373D"/><circle cx="12.999" cy="28" fill="#8899A6" r="2"/></svg>