<?xml version="1.0" encoding="UTF-8" standalone="no"?><svg xmlns="http://www.w3.org/2000/svg" height="45" viewBox="0 0 36 36" width="45"><circle cx="18" cy="18" fill="#99AAB5" r="18"/><circle cx="18" cy="18" fill="#E1E8ED" r="14"/><path d="M17 18c0 .553.448 1 1 1 .553 0 1-.447 1-1V7c0-.552-.447-1-1-1-.552 0-1 .448-1 1v11z" fill="#66757F"/><path d="M13 26.661c.479.276 1.09.112 1.367-.366l4.5-7.795c.275-.478.111-1.089-.367-1.365s-1.089-.112-1.365.365l-4.5 7.795c-.277.478-.112 1.09.365 1.366z" fill="#66757F"/></svg>