<?xml version="1.0" encoding="UTF-8" standalone="no"?><svg xmlns="http://www.w3.org/2000/svg" height="45" viewBox="0 0 36 36" width="45"><path d="M9.344 14.702h-2c-.276 0-.5-.224-.5-.5v-7c0-.276.224-.5.5-.5h2c.276 0 .5.224.5.5v7c0 .276-.224.5-.5.5z" fill="#A0041E"/><path d="M5 16L18 3l13 13v17H5z" fill="#FFE8B6"/><path d="M18 16h1v16h-1z" fill="#FFCC4D"/><path d="M31 17c-.256 0-.512-.098-.707-.293L18 4.414 5.707 16.707c-.391.391-1.023.391-1.414 0s-.391-1.023 0-1.414l13-13c.391-.391 1.023-.391 1.414 0l13 13c.391.391.391 1.023 0 1.414-.195.195-.451.293-.707.293z" fill="#66757F"/><path d="M18 17c-.256 0-.512-.098-.707-.293-.391-.391-.391-1.023 0-1.414l6.5-6.5c.391-.391 1.023-.391 1.414 0s.391 1.023 0 1.414l-6.5 6.5c-.195.195-.451.293-.707.293z" fill="#66757F"/><path d="M10 26h4v6h-4z" fill="#C1694F"/><path d="M10 17h4v4h-4zm12.5 0h4v4h-4zm0 9h4v4h-4z" fill="#55ACEE"/><path d="M33.5 33.5c0 .828-.672 1.5-1.5 1.5H4c-.828 0-1.5-.672-1.5-1.5S3.172 32 4 32h28c.828 0 1.5.672 1.5 1.5z" fill="#5C913B"/></svg>