<?xml version="1.0" encoding="UTF-8" standalone="no"?><svg xmlns="http://www.w3.org/2000/svg" height="45" viewBox="0 0 36 36" width="45"><path d="M32 36l-2-2-2 2-2-2-2 2-2-2-2 2-2-2-2 2-2-2-2 2-2-2-2 2-2-2-2 2V0l2 2 1.958-2L10 2l2.042-2L14 2l2.042-2L18 2l2.083-2L22 2l2.125-2L26 2l1.958-2L30 2l2-2z" fill="#CCD6DD"/><path d="M19 17H9c-.55 0-1-.45-1-1s.45-1 1-1h10c.55 0 1 .45 1 1s-.45 1-1 1zm8 0h-4c-.55 0-1-.45-1-1s.45-1 1-1h4c.55 0 1 .45 1 1s-.45 1-1 1zm-8 4H9c-.55 0-1-.45-1-1s.45-1 1-1h10c.55 0 1 .45 1 1s-.45 1-1 1zm8 0h-4c-.55 0-1-.45-1-1s.45-1 1-1h4c.55 0 1 .45 1 1s-.45 1-1 1zm0 6H9c-.55 0-1-.45-1-1s.45-1 1-1h18c.55 0 1 .45 1 1s-.45 1-1 1zm0 4h-4c-.55 0-1-.45-1-1s.45-1 1-1h4c.55 0 1 .45 1 1s-.45 1-1 1z" fill="#99AAB5"/><circle cx="18" cy="8" fill="#99AAB5" r="4"/></svg>