<?xml version="1.0" encoding="UTF-8" standalone="no"?><svg xmlns="http://www.w3.org/2000/svg" height="45" viewBox="0 0 36 36" width="45"><path d="M24 14H12s-5 6-5 10 11 11 11 11 11-7 11-11-5-10-5-10z" fill="#31373D"/><path d="M19.64 1.28c-.901-.704-2.377-.704-3.278 0L1.639 12.776c-.901.704-.901 1.856 0 2.56l14.722 11.495c.902.704 2.377.704 3.278 0l14.722-11.495c.902-.704.902-1.856 0-2.56L19.64 1.28z" fill="#292F33"/><path d="M19.64 1.28c-.901-.704-2.377-.704-3.278 0L1.639 12.776c-.901.704-.901 1.856 0 2.56l14.722 11.495c.901.704 2.377.704 3.278 0l14.723-11.495c.901-.704.901-1.856 0-2.56L19.64 1.28z" fill="#394146"/><path d="M8 25s-2 2-2 3v6s0 2 2 2 2-2 2-2v-6c0-1-2-3-2-3z" fill="#FCAB40"/><circle cx="8" cy="26" fill="#FDD888" r="3"/><path d="M8.001 27c-.552 0-1-.447-1-1v-3.958c-.042-.634.187-2.036 1.317-2.884l9.022-7.91c.416-.365 1.048-.323 1.411.093.364.415.322 1.047-.093 1.411l-9.08 7.958C8.974 21.166 9 21.982 9 21.99L9.002 26c0 .553-.448 1-1.001 1z" fill="#FCAB40"/><circle cx="18" cy="13" fill="#31373D" r="3"/></svg>