<?xml version="1.0" encoding="UTF-8" standalone="no"?><svg xmlns="http://www.w3.org/2000/svg" height="45" viewBox="0 0 36 36" width="45"><path d="M32 5H18v12H0v10c0 2.209 1.791 4 4 4h28c2.209 0 4-1.791 4-4V9c0-2.209-1.791-4-4-4z" fill="#ED2939"/><path d="M0 16h19v2H0z" fill="#EEE"/><path d="M6 17H0V9c0-2.209 1.791-4 4-4h2v12z" fill="#002395"/><path d="M6 5h6v12H6zm11 0h2v13h-2z" fill="#EEE"/><path d="M12 5h6v12h-6z" fill="#ED2939"/><path d="M24.38 22.32h6.24L27.5 19.2zM30.62 14h-6.24l3.12 3.12zm1.04 7.28v-6.24l-3.12 3.12zm-8.32-6.24v6.24l3.12-3.12z" fill="#FFF"/></svg>